<svg id="Layer_1" data-name="Layer 1" xmlns="http://www.w3.org/2000/svg" viewBox="0 0 283.58 238.48"><defs><style>.cls-1,.cls-6{font-size:14.07px;}.cls-1,.cls-17,.cls-21,.cls-6{fill:#fff;}.cls-1,.cls-6,.cls-8{font-family:Calistoga-Regular, Calistoga;}.cls-1{letter-spacing:0.2em;}.cls-2{letter-spacing:0.21em;}.cls-3{letter-spacing:0.11em;}.cls-4{letter-spacing:0.2em;}.cls-5{letter-spacing:0.2em;}.cls-6{letter-spacing:0.2em;}.cls-7{letter-spacing:0.2em;}.cls-8{font-size:29.55px;}.cls-20,.cls-8{fill:#e54654;}.cls-9{letter-spacing:0em;}.cls-10{letter-spacing:0em;}.cls-11{letter-spacing:0em;}.cls-12{letter-spacing:0.02em;}.cls-13{letter-spacing:-0.01em;}.cls-14{letter-spacing:0.02em;}.cls-15{letter-spacing:-0.01em;}.cls-16{letter-spacing:0em;}.cls-18,.cls-19{fill:#ffebd7;}.cls-18,.cls-21{opacity:0.5;}.cls-22{fill:#faae42;}</style></defs><title>watermark copy</title><text class="cls-1" transform="translate(105.38 238.48)">MA<tspan class="cls-2" x="28.11" y="0">L</tspan><tspan class="cls-3" x="38.83" y="0">A</tspan><tspan class="cls-4" x="49.94" y="0">W</tspan><tspan class="cls-5" x="66.74" y="0">I</tspan></text><text class="cls-6" transform="translate(112.92 179.66)">L<tspan class="cls-7" x="10.51" y="0">EARN</tspan></text><text class="cls-8" transform="translate(0 212.58)"><tspan class="cls-9">C</tspan><tspan class="cls-10" x="16.84" y="0">O</tspan><tspan class="cls-11" x="36.52" y="0">MP</tspan><tspan class="cls-12" x="81.29" y="0">U</tspan><tspan x="101.64" y="0">T</tspan><tspan class="cls-9" x="120.5" y="0">E</tspan><tspan x="138.55" y="0">R </tspan><tspan class="cls-13" x="163.46" y="0">S</tspan><tspan class="cls-14" x="180.65" y="0">T</tspan><tspan x="200.21" y="0">U</tspan><tspan class="cls-15" x="220.04" y="0">D</tspan><tspan class="cls-16" x="239.45" y="0">I</tspan><tspan x="249.59" y="0">ES</tspan></text><path class="cls-17" d="M220.11,144.49v.1h-2A19.76,19.76,0,0,0,220.11,144.49Z"/><path class="cls-17" d="M243.64,30.63V114c0,16-10.38,29.26-23.53,30.51a19.76,19.76,0,0,1-2,.1H70.61c-16,0-29.09-13.73-29.09-30.61V30.63C41.52,15,52.77,2,67.22.21A27.19,27.19,0,0,1,70.61,0h109c2.93,0,5.31,2.92,5.31,6.53h0c0,3.61-2.38,6.54-5.31,6.54H70.61c-9.2,0-16.67,7.87-16.67,17.56V114c0,9.67,7.47,17.55,16.67,17.55H218.07c8.08,0,14.66-7.88,14.66-17.55V30.63c0-9.69-6.58-17.56-14.66-17.56h-.41c-2.93,0-5.31-2.93-5.31-6.54h0c0-3.61,2.38-6.53,5.31-6.53h.41C232.17,0,243.64,13.74,243.64,30.63Z"/><path class="cls-17" d="M70.61,0a27.19,27.19,0,0,0-3.39.21V0Z"/><path class="cls-17" d="M188.13,160.33H97a14.69,14.69,0,0,1,12.7-7.25h65.68A14.71,14.71,0,0,1,188.13,160.33Z"/><path class="cls-18" d="M142.58,42.48V75.3c1.93-3.66,8.19-11.42,24.46-10.07l8.32-33.4S155.9,30.17,142.58,42.48Z"/><path class="cls-18" d="M142.58,42.48V75.3c-1.93-3.66-8.18-11.42-24.45-10.07l-8.33-33.4S129.27,30.17,142.58,42.48Z"/><path class="cls-19" d="M142.58,52.36v51.16c3-5.71,12.76-17.8,38.12-15.69l13-47.91S163.33,33.17,142.58,52.36Z"/><path class="cls-19" d="M142.58,52.36v51.16c-3-5.71-12.75-17.8-38.11-15.69l-13-47.91S121.84,33.17,142.58,52.36Z"/><path class="cls-20" d="M142.58,67.06V128.9c3.64-6.9,15.42-21.52,46.08-19L204.34,52S167.66,43.86,142.58,67.06Z"/><path class="cls-21" d="M187.11,79.39,191,65s-21.79-4.84-36.7,8.94V86.55C166.23,78.34,180.47,78.65,187.11,79.39Z"/><path class="cls-22" d="M142.58,67.06V128.9c-3.63-6.9-15.41-21.52-46.07-19L80.82,52S117.5,43.86,142.58,67.06Z"/></svg>